<?xml version="1.0" encoding="UTF-8" standalone="no"?>
<!DOCTYPE svg PUBLIC "-//W3C//DTD SVG 1.1//EN" "http://www.w3.org/Graphics/SVG/1.1/DTD/svg11.dtd">
<svg width="100%" height="100%" viewBox="0 0 512 512" version="1.1" xmlns="http://www.w3.org/2000/svg" xmlns:xlink="http://www.w3.org/1999/xlink" xml:space="preserve" xmlns:serif="http://www.serif.com/" style="fill-rule:evenodd;clip-rule:evenodd;stroke-linejoin:round;stroke-miterlimit:2;">
    <path d="M90.051,395.949C82.883,395.949 75.992,397.738 69.879,401.098C37.676,359.816 20,308.535 20,256C20,125.867 125.867,20 256,20C271.82,20 287.633,21.574 303,24.68C308.406,25.773 313.688,22.273 314.781,16.859C315.875,11.445 312.375,6.172 306.961,5.074C290.293,1.707 273.148,-0 256,-0C187.621,-0 123.332,26.629 74.98,74.98C26.629,123.332 0,187.621 0,256C0,313.52 19.531,369.652 55.09,414.652C50.512,421.492 48.051,429.531 48.051,437.949C48.051,449.168 52.422,459.715 60.355,467.645C68.285,475.578 78.832,479.949 90.051,479.949C101.27,479.949 111.816,475.578 119.75,467.645C127.684,459.715 132.051,449.164 132.051,437.945C132.051,426.73 127.684,416.18 119.75,408.25C111.816,400.316 101.27,395.949 90.051,395.949ZM105.605,453.504C101.453,457.66 95.926,459.949 90.051,459.949C84.176,459.949 78.652,457.66 74.496,453.504C70.34,449.348 68.051,443.824 68.051,437.949C68.051,432.07 70.34,426.547 74.496,422.391C78.648,418.234 84.176,415.949 90.051,415.949C95.926,415.949 101.449,418.238 105.605,422.391C109.762,426.547 112.051,432.07 112.051,437.949C112.051,443.824 109.762,449.348 105.605,453.504Z" style="fill:rgb(61,103,180);fill-rule:nonzero;"/>
    <path d="M456.902,97.336C467.773,81.027 466.027,58.73 451.648,44.352C443.715,36.422 433.168,32.051 421.949,32.051C410.73,32.051 400.184,36.422 392.25,44.352C384.316,52.285 379.949,62.832 379.949,74.051C379.949,85.27 384.316,95.816 392.25,103.75C400.184,111.684 410.73,116.051 421.949,116.051C429.117,116.051 436.008,114.262 442.121,110.902C474.324,152.188 492,203.465 492,256C492,386.133 386.133,492 256,492C240.336,492 224.672,490.457 209.449,487.41C204.035,486.328 198.766,489.84 197.68,495.254C196.598,500.672 200.109,505.938 205.523,507.023C222.035,510.324 239.02,512 256,512C324.379,512 388.668,485.371 437.02,437.02C485.371,388.668 512,324.379 512,256C512,198.477 492.465,142.34 456.902,97.336ZM406.395,89.609C402.238,85.453 399.949,79.93 399.949,74.051C399.949,68.176 402.238,62.652 406.395,58.496C410.547,54.34 416.074,52.051 421.949,52.051C427.824,52.051 433.352,54.34 437.508,58.496C446.082,67.074 446.082,81.031 437.508,89.609C433.352,93.762 427.824,96.051 421.949,96.051C416.07,96.051 410.547,93.762 406.395,89.609Z" style="fill:rgb(61,103,180);fill-rule:nonzero;"/>
    <path d="M214.734,428C214.734,433.523 219.215,438 224.734,438L287.262,438C292.785,438 297.262,433.523 297.262,428L297.262,408.613C310.41,405.074 322.98,399.863 334.793,393.059L348.48,406.746C350.355,408.621 352.898,409.676 355.555,409.676C358.203,409.676 360.75,408.621 362.625,406.742L406.82,362.516C410.723,358.609 410.723,352.277 406.82,348.375L393.148,334.703C399.953,322.891 405.164,310.32 408.703,297.172L428.016,297.172C433.539,297.172 438.016,292.695 438.016,287.172L438.016,224.645C438.016,219.121 433.539,214.645 428.016,214.645L408.699,214.645C405.16,201.5 399.953,188.93 393.148,177.117L406.746,163.52C408.621,161.645 409.676,159.098 409.676,156.445C409.672,153.793 408.617,151.246 406.742,149.371L362.512,105.176C358.609,101.273 352.277,101.273 348.371,105.18L334.793,118.762C322.98,111.957 310.41,106.746 297.262,103.207L297.262,84C297.262,78.477 292.785,74 287.262,74L224.734,74C219.215,74 214.734,78.477 214.734,84L214.734,103.211C201.59,106.746 189.02,111.957 177.207,118.762L163.625,105.18C159.723,101.277 153.391,101.273 149.484,105.176L105.258,149.375C103.379,151.25 102.324,153.793 102.324,156.445C102.324,159.098 103.379,161.645 105.254,163.52L118.852,177.117C112.047,188.93 106.836,201.496 103.297,214.645L84.02,214.645C78.496,214.645 74.02,219.121 74.02,224.641L73.984,287.168C73.98,289.82 75.035,292.367 76.91,294.242C78.785,296.117 81.328,297.172 83.984,297.172L103.297,297.172C106.836,310.32 112.047,322.891 118.852,334.703L105.18,348.375C101.277,352.277 101.273,358.609 105.18,362.516L149.375,406.742C151.25,408.617 153.793,409.676 156.445,409.676L156.449,409.676C159.102,409.676 161.645,408.621 163.52,406.746L177.203,393.059C189.02,399.863 201.59,405.074 214.734,408.613L214.734,428ZM181.125,372.027C177.168,369.469 171.961,370.023 168.625,373.355L156.449,385.531L126.391,355.449L138.555,343.281C141.887,339.949 142.441,334.742 139.883,330.785C130.816,316.754 124.441,301.375 120.941,285.07C119.949,280.465 115.879,277.172 111.164,277.172L93.988,277.172L94.012,234.645L111.164,234.645C115.879,234.645 119.949,231.355 120.941,226.746C124.441,210.445 130.816,195.066 139.883,181.035C142.441,177.078 141.887,171.871 138.555,168.539L126.469,156.449L156.551,126.391L168.625,138.469C171.961,141.801 177.164,142.352 181.125,139.797C195.152,130.73 210.531,124.355 226.836,120.855C231.441,119.863 234.734,115.789 234.734,111.078L234.734,94L277.262,94L277.262,111.074C277.262,115.789 280.551,119.863 285.16,120.852C301.461,124.355 316.844,130.727 330.871,139.793C334.828,142.352 340.035,141.801 343.367,138.465L355.445,126.391L385.527,156.449L373.441,168.535C370.105,171.871 369.555,177.078 372.113,181.035C381.18,195.066 387.551,210.445 391.055,226.746C392.043,231.355 396.117,234.645 400.832,234.645L418.016,234.645L418.016,277.172L400.832,277.172C396.117,277.172 392.047,280.465 391.055,285.07C387.555,301.371 381.18,316.754 372.113,330.781C369.555,334.742 370.109,339.949 373.441,343.281L385.605,355.445L355.547,385.527L343.371,373.355C340.035,370.02 334.828,369.469 330.871,372.027C316.84,381.094 301.461,387.465 285.16,390.969C280.551,391.961 277.262,396.031 277.262,400.746L277.262,418L234.734,418L234.734,400.746C234.734,396.035 231.441,391.961 226.836,390.969C210.535,387.469 195.156,381.094 181.125,372.027Z" style="fill:rgb(61,103,180);fill-rule:nonzero;"/>
    <path d="M338.629,256C338.629,210.438 301.563,173.371 256,173.371C210.437,173.371 173.371,210.438 173.371,256C173.371,301.563 210.437,338.629 256,338.629C301.563,338.629 338.629,301.563 338.629,256ZM193.371,256C193.371,221.465 221.465,193.371 256,193.371C290.535,193.371 318.629,221.469 318.629,256C318.629,290.531 290.535,318.629 256,318.629C221.465,318.629 193.371,290.535 193.371,256Z" style="fill:rgb(61,103,180);fill-rule:nonzero;"/>
    <path d="M348.078,37.82C350.711,37.82 353.289,36.75 355.148,34.891C357.008,33.02 358.078,30.441 358.078,27.809C358.078,25.191 357.012,22.609 355.148,20.738C353.289,18.879 350.711,17.809 348.078,17.809C345.438,17.809 342.871,18.879 341.012,20.738C339.148,22.609 338.078,25.18 338.078,27.809C338.078,30.449 339.148,33.02 341.012,34.891C342.871,36.75 345.438,37.82 348.078,37.82Z" style="fill:rgb(61,103,180);fill-rule:nonzero;"/>
    <path d="M164.359,474.359C161.73,474.359 159.148,475.43 157.289,477.289C155.43,479.148 154.359,481.73 154.359,484.359C154.359,487 155.43,489.57 157.289,491.43C159.148,493.289 161.73,494.359 164.359,494.359C166.988,494.359 169.57,493.289 171.43,491.43C173.289,489.57 174.359,486.988 174.359,484.359C174.359,481.73 173.289,479.148 171.43,477.289C169.57,475.43 166.988,474.359 164.359,474.359Z" style="fill:rgb(61,103,180);fill-rule:nonzero;"/>
</svg>
